<?xml version="1.0" encoding="UTF-8"?>
<svg xmlns="http://www.w3.org/2000/svg" width="1120" height="1120" viewBox="0 0 1120.00 1120.00" role="img" aria-label="Logo (Material Symbols: emoji_language)">
  <rect x="0" y="0" width="100%" height="100%" fill="#000000"/>
  <path d="M629 16Q517 16 433.0 83.0Q349 150 323 254Q364 252 403.0 260.5Q442 269 477 287H681Q683 298 683.5 311.0Q684 324 684 336Q684 346 684.0 356.5Q684 367 682 378H610Q627 395 640.0 415.0Q653 435 664 457H828Q807 492 773.5 519.0Q740 546 699 557Q703 576 705.0 596.0Q707 616 707 636Q810 611 877.0 527.0Q944 443 944 332Q944 201 852.5 108.5Q761 16 629 16ZM533 120Q525 141 518.5 162.5Q512 184 508 208H430Q447 177 473.5 154.5Q500 132 533 120ZM629 108Q643 132 653.5 157.0Q664 182 669 208H588Q590 202 603.5 167.0Q617 132 629 108ZM726 120Q759 132 785.5 154.5Q812 177 829 208H751Q748 185 741.0 163.0Q734 141 726 120ZM762 287H861Q863 297 864.0 308.5Q865 320 865 332Q865 344 864.5 355.5Q864 367 861 378H762Q763 367 763.5 357.0Q764 347 764 336Q764 324 763.5 311.5Q763 299 762 287ZM332 314Q200 314 108.0 406.0Q16 498 16 630Q16 761 108.0 852.5Q200 944 332 944Q463 944 555.0 853.0Q647 762 647 629Q647 498 555.0 406.0Q463 314 332 314ZM332 392Q430 392 499.0 461.5Q568 531 568 629Q568 727 499.0 796.0Q430 865 332 865Q234 865 164.5 796.0Q95 727 95 629Q95 531 164.5 461.5Q234 392 332 392ZM226 653Q242 653 253.5 664.5Q265 676 265 694Q265 709 253.0 720.5Q241 732 225 732Q209 732 197.5 720.5Q186 709 186 693Q186 676 197.5 664.5Q209 653 226 653ZM332 467Q382 467 421.0 494.5Q460 522 478 566H186Q204 522 243.0 494.5Q282 467 332 467ZM438 653Q454 653 465.5 664.5Q477 676 477 694Q477 709 465.5 720.5Q454 732 438 732Q421 732 410.0 720.5Q399 709 399 693Q399 676 410.0 664.5Q421 653 438 653ZM332 629Q332 629 332.0 629.0Q332 629 332 629Q332 629 332.0 629.0Q332 629 332 629Q332 629 332.0 629.0Q332 629 332 629Q332 629 332.0 629.0Q332 629 332 629Z" fill="#FF2D2D" transform="translate(80.00 1040.00) scale(1 -1)"/>
</svg>
